<?xml version="1.0" encoding="utf-8"?>
<!-- Generator: Adobe Illustrator 19.0.0, SVG Export Plug-In . SVG Version: 6.00 Build 0)  -->
<svg version="1.1" id="Layer_1" xmlns="http://www.w3.org/2000/svg" xmlns:xlink="http://www.w3.org/1999/xlink" x="0px" y="0px"
	 width="1400px" height="980px" viewBox="0 0 1400 980" enable-background="new 0 0 1400 980" xml:space="preserve">
<g id="XMLID_1_">
	<g id="XMLID_128_">
		<path id="XMLID_462_" fill="#FFFFFF" d="M321.6,235.9c0-72.4-82.7-61.7-94-50c-9.8,10.1-15.5,14.2-22,14.2
			c-6.5,0-12.2-4.1-22-14.2c-11.3-11.7-94-22.5-94,50s40.8,73.8,40.8,111.4c0,37.6-0.9,88,28.9,88c29.8,0,12.4-100.9,46.3-100.9
			c33.9,0,16.5,100.9,46.3,100.9c29.8,0,28.9-50.4,28.9-88C280.8,309.8,321.6,308.4,321.6,235.9z"/>
	</g>
	<g id="XMLID_127_">
		<path id="XMLID_461_" fill="#DBF0F6" d="M265.1,177.6c13.7,12.9,25.5,32.1,24,59.3c-3.4,61.7-24.6,62.5-26.9,109.4
			c-2,41.9,5.5,80.9-17.8,86.4c2.1,1.7,4.5,2.7,7.4,2.7c29.8,0,28.9-50.4,28.9-88s40.8-39,40.8-111.4
			C321.6,192.2,291.5,178.8,265.1,177.6z"/>
	</g>
	<g id="XMLID_126_">
		<path id="XMLID_380_" fill="#8B288B" d="M251.9,438.8c-17.4,0-20.9-24.7-24.7-50.9c-3.5-24.5-7.1-49.9-21.6-49.9
			c-14.5,0-18.1,25.4-21.6,49.9c-3.7,26.2-7.3,50.9-24.7,50.9c-14.5,0-24.2-10.5-28.7-31.1c-3.7-16.9-3.7-38.2-3.7-57.1l0-3.3
			c0-14.6-6.5-23.1-14.8-34c-11.6-15.2-26-34.2-26-77.4c0-35.2,18.7-50.1,34.4-56.5c25.9-10.5,58-3.6,65.5,4.1
			c9.5,9.8,14.5,13.2,19.5,13.2c5.1,0,10-3.3,19.5-13.2c7.5-7.7,39.5-14.6,65.5-4.1c15.7,6.4,34.4,21.3,34.4,56.5
			c0,43.3-14.4,62.2-26,77.4c-8.3,10.8-14.8,19.4-14.8,34l0,3.3c0,18.8,0,40.2-3.7,57.1C276,428.3,266.4,438.8,251.9,438.8z
			 M205.6,331.1c20.5,0,24.5,28.4,28.5,55.8c3.2,22.1,6.4,45,17.9,45c7,0,16.9-2.7,22-25.7c3.5-16.2,3.5-37.1,3.5-55.6l0-3.3
			c0-16.9,7.9-27.2,16.2-38.1c11.5-15.2,24.6-32.3,24.6-73.3c0-25.2-10.1-42-30.1-50.1c-24-9.7-52.8-2.9-58,2.5
			c-9.8,10.1-16.3,15.3-24.5,15.3c-8.2,0-14.7-5.1-24.5-15.3c-5.2-5.4-34-12.2-58-2.5c-20,8.1-30.1,25-30.1,50.1
			c0,40.9,13.1,58.1,24.6,73.3c8.3,10.9,16.2,21.2,16.2,38.1l0,3.3c0,18.5,0,39.4,3.5,55.6c5,23.1,14.9,25.7,21.9,25.7
			c11.4,0,14.7-22.9,17.9-45C181,359.5,185.1,331.1,205.6,331.1z"/>
	</g>
	<g id="XMLID_125_">
		<path id="XMLID_379_" fill="#8B288B" d="M111.3,245.9L111.3,245.9c-1.9,0-3.4-1.5-3.4-3.4c0-24.8,11.9-41.9,33.5-48.3
			c1.8-0.5,3.7,0.5,4.3,2.3c0.5,1.8-0.5,3.7-2.3,4.3c-13,3.8-28.5,14.2-28.5,41.7C114.8,244.4,113.2,245.9,111.3,245.9z"/>
	</g>
</g>
<g id="XMLID_2_">
	<g id="XMLID_3_">
		<g id="XMLID_124_">
			<path id="XMLID_460_" fill="#7C89C4" d="M418.4,291.2l81.5,81.5c3.5,3.5,8.2,5.5,13.1,5.5l49.3,0.2l51.5,51.5
				c7.3,7.3,19.1,7.3,26.4,0c7.3-7.3,7.3-19.1,0-26.4l-56.9-57c-3.5-3.5-8.2-5.5-13.1-5.5l-49.3-0.2l-76-76
				c-7.3-7.3-19.1-7.3-26.4,0C411.1,272.1,411.1,283.9,418.4,291.2z"/>
		</g>
	</g>
	<g id="XMLID_123_">
		<path id="XMLID_459_" fill="#BFCBE8" d="M632.6,411.2l-56.9-56.9c-3.5-3.5-8.2-5.5-13.1-5.5l-49.3-0.2l-76-76c-6-6-14.9-7-22-3.3
			c0.8-1.6,1.9-3.1,3.3-4.4c7.3-7.3,19.1-7.3,26.4,0l76,76l49.3,0.2c4.9,0,9.6,2,13.1,5.5l56.9,57c7.3,7.3,7.3,19.1,0,26.4
			c-1.3,1.3-2.8,2.4-4.4,3.3C639.6,426.1,638.5,417.2,632.6,411.2z"/>
	</g>
	<g id="XMLID_122_">
		<path id="XMLID_458_" fill="#6071B6" d="M425.9,283.8l81.5,81.5c3.5,3.5,8.2,5.5,13.1,5.5l49.3,0.2l51.5,51.5
			c6,6,15.1,7.1,22.2,3.2c-0.8,1.5-1.9,3-3.2,4.3c-7.3,7.3-19.1,7.3-26.4,0l-51.5-51.5l-49.3-0.2c-4.9,0-9.6-2-13.1-5.5l-81.5-81.5
			c-7.3-7.3-7.3-19.1,0-26.4c1.3-1.3,2.7-2.4,4.3-3.2C418.8,268.7,419.9,277.8,425.9,283.8z"/>
	</g>
	<g id="XMLID_4_">
		<g id="XMLID_121_">
			<path id="XMLID_376_" fill="#8B288B" d="M627.1,438.8c-5.7,0-11.3-2.2-15.6-6.5l-50.5-50.5l-47.9-0.2c-5.9,0-11.4-2.3-15.6-6.5
				L416,293.7c-4.2-4.2-6.5-9.7-6.5-15.6c0-5.9,2.3-11.5,6.5-15.6c4.2-4.2,9.7-6.5,15.6-6.5h0c5.9,0,11.5,2.3,15.6,6.5l75,75
				l47.9,0.2c5.9,0,11.4,2.3,15.6,6.5l56.9,57c4.2,4.2,6.5,9.7,6.5,15.6c0,5.9-2.3,11.5-6.5,15.6
				C638.4,436.7,632.8,438.8,627.1,438.8z M431.6,262.8c-4.1,0-7.9,1.6-10.8,4.5c-2.9,2.9-4.5,6.7-4.5,10.8c0,4.1,1.6,7.9,4.5,10.8
				l0,0l81.5,81.5c2.9,2.9,6.7,4.5,10.7,4.5l49.3,0.2c0.9,0,1.8,0.4,2.4,1l51.5,51.5c5.9,5.9,15.6,5.9,21.6,0
				c2.9-2.9,4.5-6.7,4.5-10.8c0-4.1-1.6-7.9-4.5-10.8l-56.9-57c-2.9-2.9-6.7-4.4-10.7-4.5l-49.3-0.2c-0.9,0-1.8-0.4-2.4-1l-76-76
				C439.5,264.4,435.7,262.8,431.6,262.8z"/>
		</g>
	</g>
	<g id="XMLID_120_">
		
			<rect id="XMLID_457_" x="512.3" y="297.1" transform="matrix(-0.7071 -0.7071 0.7071 -0.7071 673.0372 913.2148)" fill="#FEED70" width="26.7" height="40.1"/>
	</g>
	<g id="XMLID_119_">
		
			<rect id="XMLID_456_" x="493.4" y="278.3" transform="matrix(-0.7071 -0.7071 0.7071 -0.7071 654.136 867.6135)" fill="#EF445A" width="26.7" height="40.1"/>
	</g>
	<g id="XMLID_118_">
		
			<rect id="XMLID_455_" x="474.5" y="259.4" transform="matrix(-0.7071 -0.7071 0.7071 -0.7071 635.2462 822.0117)" fill="#FEED70" width="26.7" height="40.1"/>
	</g>
	<g id="XMLID_117_">
		
			<rect id="XMLID_454_" x="455.6" y="240.5" transform="matrix(-0.7071 -0.7071 0.7071 -0.7071 616.3749 776.4019)" fill="#EF445A" width="26.7" height="40.1"/>
	</g>
	<g id="XMLID_116_">
		<path id="XMLID_373_" fill="#8B288B" d="M520.9,344.3c-0.9,0-1.8-0.3-2.4-1l-18.9-18.9c-0.6-0.6-1-1.5-1-2.4s0.4-1.8,1-2.4
			l28.4-28.4c1.3-1.3,3.5-1.3,4.9,0l18.9,18.9c0.6,0.6,1,1.5,1,2.4c0,0.9-0.4,1.8-1,2.4l-28.4,28.4
			C522.7,344,521.8,344.3,520.9,344.3z M506.9,322l14,14l23.5-23.5l-14-14L506.9,322z"/>
	</g>
	<g id="XMLID_115_">
		<path id="XMLID_370_" fill="#8B288B" d="M502,325.4c-0.9,0-1.8-0.3-2.4-1l-18.9-18.9c-0.6-0.6-1-1.5-1-2.4c0-0.9,0.4-1.8,1-2.4
			l28.4-28.4c1.3-1.3,3.5-1.3,4.9,0l18.9,18.9c0.6,0.6,1,1.5,1,2.4c0,0.9-0.4,1.8-1,2.4l-28.4,28.4
			C503.8,325.1,502.9,325.4,502,325.4z M488,303.1l14,14l23.5-23.5l-14-14L488,303.1z"/>
	</g>
	<g id="XMLID_114_">
		<path id="XMLID_367_" fill="#8B288B" d="M483.1,306.5c-0.9,0-1.8-0.3-2.4-1l-18.9-18.9c-0.6-0.6-1-1.5-1-2.4c0-0.9,0.4-1.8,1-2.4
			l28.4-28.4c1.3-1.3,3.5-1.3,4.9,0l18.9,18.9c0.6,0.6,1,1.5,1,2.4c0,0.9-0.4,1.8-1,2.4l-28.4,28.4
			C484.9,306.2,484,306.5,483.1,306.5z M469.1,284.2l14,14l23.5-23.5l-14-14L469.1,284.2z"/>
	</g>
	<g id="XMLID_113_">
		<path id="XMLID_364_" fill="#8B288B" d="M464.2,287.6c-0.9,0-1.8-0.3-2.4-1l-18.9-18.9c-0.6-0.6-1-1.5-1-2.4c0-0.9,0.4-1.8,1-2.4
			l28.4-28.4c1.3-1.3,3.5-1.3,4.9,0l18.9,18.9c0.6,0.6,1,1.5,1,2.4s-0.4,1.8-1,2.4l-28.4,28.4C466,287.3,465.1,287.6,464.2,287.6z
			 M450.2,265.3l14,14l23.5-23.5l-14-14L450.2,265.3z"/>
	</g>
	<g id="XMLID_112_">
		<path id="XMLID_453_" fill="#8AD2D6" d="M534.3,180.7c-29.7,16.4-10.2,34.7-10.2,34.7l50.6,50.6c9.9,9.9,9.9,26,0,35.9
			c-9.9,9.9-26,9.9-35.9,0l-60.7-60.7c-9.9-9.9-9.9-26,0-35.9C519.1,164.4,534.3,180.7,534.3,180.7z"/>
	</g>
	<g id="XMLID_5_">
		<g id="XMLID_111_">
			<path id="XMLID_452_" fill="#63B2B2" d="M485.7,233.8l60.7,60.7c8.6,8.6,21.9,9.7,31.7,3.4c-1,1.5-2.1,2.9-3.4,4.2
				c-9.9,9.9-26,9.9-35.9,0l-60.7-60.7c-9.9-9.9-9.9-26,0-35.9c2-2,3.8-3.7,5.7-5.4C475.8,209.9,476.4,224.5,485.7,233.8z"/>
		</g>
	</g>
	<g id="XMLID_6_">
		<g id="XMLID_110_">
			<path id="XMLID_451_" fill="#D1EDF3" d="M569.2,271.7L518.5,221c0,0-16-15,3.1-30.1c-9.8,13,2.5,24.5,2.5,24.5l50.6,50.6
				c9.9,9.9,9.9,26,0,35.9c-0.9,0.9-2,1.8-3,2.5C579,294.6,578.1,280.6,569.2,271.7z"/>
		</g>
	</g>
	<g id="XMLID_109_">
		<path id="XMLID_361_" fill="#8B288B" d="M556.8,312.9c-7.4,0-14.8-2.8-20.4-8.4l-60.7-60.7c-5.4-5.4-8.4-12.7-8.4-20.4
			c0-7.7,3-14.9,8.4-20.4c19.4-19.4,36-29.1,49.2-28.9c7.8,0.1,11.5,3.9,11.9,4.3c0.7,0.8,1,1.8,0.9,2.9s-0.8,2-1.7,2.5
			c-9,5-13.9,10.4-14.6,16.2c-0.9,7.1,5.1,12.9,5.1,13l50.7,50.7c5.4,5.4,8.4,12.7,8.4,20.4c0,7.7-3,14.9-8.4,20.4
			C571.5,310.1,564.2,312.9,556.8,312.9z M524.4,181c-7.6,0-21.5,4.5-43.8,26.8c-4.1,4.1-6.4,9.7-6.4,15.5c0,5.9,2.3,11.4,6.4,15.5
			l60.7,60.7c8.6,8.6,22.5,8.6,31,0c4.1-4.1,6.4-9.7,6.4-15.5c0-5.9-2.3-11.4-6.4-15.5l-50.6-50.6c-0.3-0.3-8.5-8.1-7.2-18.8
			c0.8-6.6,5-12.6,12.5-17.9C526.2,181.1,525.4,181,524.4,181z"/>
	</g>
	<g id="XMLID_108_">
		<path id="XMLID_360_" fill="#8B288B" d="M561.9,295.5c-0.9,0-1.8-0.3-2.4-1c-1.3-1.3-1.3-3.5,0-4.9c4.2-4.2,4.2-11,0-15.2
			c-1.3-1.3-1.3-3.5,0-4.9c1.3-1.3,3.5-1.3,4.9,0c6.9,6.9,6.9,18.1,0,24.9C563.7,295.2,562.8,295.5,561.9,295.5z"/>
	</g>
</g>
<g id="XMLID_7_">
	<g id="XMLID_107_">
		<path id="XMLID_450_" fill="#BCBEC0" d="M142.3,679.1l25.4,90.7c0,0,15.5,32.7,37.8,32.7c22.3,0,37.8-32.7,37.8-32.7l25.4-90.7
			H142.3z"/>
	</g>
	<g id="XMLID_106_">
		<path id="XMLID_449_" fill="#939598" d="M256.8,679.1l-25.4,90.7c0,0-12.7,26.9-31.8,31.9c1.9,0.5,4,0.8,6,0.8
			c22.3,0,37.8-32.7,37.8-32.7l25.4-90.7H256.8z"/>
	</g>
	<g id="XMLID_105_">
		<path id="XMLID_448_" fill="#E6E7E8" d="M154.4,679.1l25.4,90.7c0,0,12.7,26.9,31.8,31.9c-1.9,0.5-4,0.8-6,0.8
			c-22.3,0-37.8-32.7-37.8-32.7l-25.4-90.7H154.4z"/>
	</g>
	<g id="XMLID_104_">
		<path id="XMLID_447_" fill="#FFFFFF" d="M295.7,679.1c11.7-15.3,25.9-33.3,25.9-76.1c0-72.4-82.7-61.7-94-50
			c-9.8,10.1-15.5,14.2-22,14.2c-6.6,0-12.2-4.1-22-14.2c-11.3-11.7-94-22.5-94,50c0,42.8,14.2,60.8,25.9,76.1H295.7z"/>
	</g>
	<g id="XMLID_103_">
		<path id="XMLID_446_" fill="#DBF0F6" d="M103.9,662.7c3.7,6.2,7.8,11.5,11.5,16.4h180.3c11.7-15.3,25.9-33.3,25.9-76.1
			c0-58.6-54.1-62.7-80.8-56c14.9,9.5,34.9,29.3,26.3,64.8C256.3,656.5,154.7,665.6,103.9,662.7z"/>
	</g>
	<g id="XMLID_102_">
		<path id="XMLID_359_" fill="#8B288B" d="M111.3,613L111.3,613c-1.9,0-3.4-1.5-3.4-3.4c0-24.8,11.9-41.9,33.5-48.3
			c1.8-0.5,3.7,0.5,4.3,2.3c0.5,1.8-0.5,3.7-2.3,4.3c-13,3.8-28.5,14.2-28.5,41.7C114.8,611.4,113.2,613,111.3,613z"/>
	</g>
	<g id="XMLID_101_">
		<path id="XMLID_356_" fill="#8B288B" d="M295.7,682.5H115.4c-1.1,0-2.1-0.5-2.7-1.4l-0.5-0.7c-11.6-15.2-26-34.2-26-77.4
			c0-35.2,18.7-50.1,34.4-56.5c25.9-10.5,58-3.6,65.5,4.1c9.6,9.8,14.5,13.2,19.5,13.2c5.1,0,10-3.3,19.5-13.2
			c7.5-7.7,39.6-14.6,65.5-4.1c15.7,6.4,34.4,21.3,34.4,56.5c0,43.3-14.4,62.2-26,77.4l-0.5,0.7C297.8,682,296.8,682.5,295.7,682.5z
			 M117.1,675.7H294c11.4-15,24.1-32.3,24.1-72.6c0-25.2-10.1-42-30.1-50.1c-24-9.7-52.8-2.9-58,2.5c-9.8,10.1-16.3,15.3-24.5,15.3
			s-14.7-5.1-24.5-15.3c-5.2-5.4-34-12.2-58-2.5c-20,8.1-30.1,25-30.1,50.1C93,643.4,105.7,660.7,117.1,675.7z"/>
	</g>
	<g id="XMLID_100_">
		<path id="XMLID_353_" fill="#8B288B" d="M205.6,805.9c-24.2,0-40.3-33.2-40.9-34.6c-0.1-0.2-0.2-0.4-0.2-0.5L139,680
			c-0.3-1-0.1-2.1,0.6-3c0.7-0.9,1.7-1.4,2.7-1.4h126.5c1.1,0,2.1,0.5,2.7,1.4c0.6,0.9,0.9,2,0.6,3l-25.4,90.7
			c-0.1,0.2-0.1,0.4-0.2,0.5C245.8,772.7,229.8,805.9,205.6,805.9z M171,768.6c1.4,2.9,15.7,30.5,34.6,30.5
			c19,0,33.2-27.5,34.6-30.5l24.1-86H146.9L171,768.6z"/>
	</g>
	<g id="XMLID_99_">
		<path id="XMLID_445_" fill="#E6E7E8" d="M288,706.5c0,4.2-3.4,7.7-7.6,7.7H130.7c-4.2,0-7.7-3.4-7.7-7.7l0,0
			c0-4.2,3.4-7.7,7.7-7.7h149.7C284.6,698.9,288,702.3,288,706.5L288,706.5z"/>
	</g>
	<g id="XMLID_98_">
		<path id="XMLID_444_" fill="#FFFFFF" d="M280.4,698.9h-11.7c4.2,0,7.6,3.4,7.6,7.7c0,4.2-3.4,7.7-7.6,7.7h11.7
			c4.2,0,7.6-3.4,7.6-7.7C288,702.3,284.6,698.9,280.4,698.9z"/>
	</g>
	<g id="XMLID_97_">
		<path id="XMLID_443_" fill="#D1D3D4" d="M130.7,698.9h11.7c-4.2,0-7.6,3.4-7.6,7.7c0,4.2,3.4,7.7,7.6,7.7h-11.7
			c-4.2,0-7.6-3.4-7.6-7.7C123,702.3,126.4,698.9,130.7,698.9z"/>
	</g>
	<g id="XMLID_96_">
		<path id="XMLID_442_" fill="#E6E7E8" d="M278.4,737.1c0,4.2-3.4,7.7-7.6,7.7H140.4c-4.2,0-7.7-3.4-7.7-7.7l0,0
			c0-4.2,3.4-7.7,7.7-7.7h130.4C275,729.5,278.4,732.9,278.4,737.1L278.4,737.1z"/>
	</g>
	<g id="XMLID_95_">
		<path id="XMLID_441_" fill="#FFFFFF" d="M269.1,729.5h-11.7c4.2,0,7.6,3.4,7.6,7.7c0,4.2-3.4,7.7-7.6,7.7h11.7
			c4.2,0,7.6-3.4,7.6-7.7C276.8,732.9,273.3,729.5,269.1,729.5z"/>
	</g>
	<g id="XMLID_94_">
		<path id="XMLID_440_" fill="#D1D3D4" d="M140.4,729.5h11.7c-4.2,0-7.6,3.4-7.6,7.7c0,4.2,3.4,7.7,7.6,7.7h-11.7
			c-4.2,0-7.6-3.4-7.6-7.7C132.7,732.9,136.1,729.5,140.4,729.5z"/>
	</g>
	<g id="XMLID_93_">
		<path id="XMLID_439_" fill="#E6E7E8" d="M267.1,767.7c0,4.2-3.4,7.7-7.6,7.7H151.7c-4.2,0-7.7-3.4-7.7-7.7l0,0
			c0-4.2,3.4-7.7,7.7-7.7h107.7C263.6,760.1,267.1,763.5,267.1,767.7L267.1,767.7z"/>
	</g>
	<g id="XMLID_92_">
		<path id="XMLID_438_" fill="#FFFFFF" d="M259.4,760.1h-11.7c4.2,0,7.6,3.4,7.6,7.7c0,4.2-3.4,7.7-7.6,7.7h11.7
			c4.2,0,7.6-3.4,7.6-7.7C267.1,763.5,263.6,760.1,259.4,760.1z"/>
	</g>
	<g id="XMLID_91_">
		<path id="XMLID_437_" fill="#D1D3D4" d="M151.7,760.1h11.7c-4.2,0-7.6,3.4-7.6,7.7c0,4.2,3.4,7.7,7.6,7.7h-11.7
			c-4.2,0-7.6-3.4-7.6-7.7C144.1,763.5,147.5,760.1,151.7,760.1z"/>
	</g>
	<g id="XMLID_90_">
		<path id="XMLID_350_" fill="#8B288B" d="M280.4,717.6H130.7c-6.1,0-11.1-5-11.1-11.1c0-6.1,5-11.1,11.1-11.1h149.7
			c6.1,0,11.1,5,11.1,11.1C291.5,712.6,286.5,717.6,280.4,717.6z M130.7,702.3c-2.3,0-4.2,1.9-4.2,4.2c0,2.3,1.9,4.2,4.2,4.2h149.7
			c2.3,0,4.2-1.9,4.2-4.2c0-2.3-1.9-4.2-4.2-4.2H130.7z"/>
	</g>
	<g id="XMLID_89_">
		<path id="XMLID_347_" fill="#8B288B" d="M270.8,748.2H140.4c-6.1,0-11.1-5-11.1-11.1c0-6.1,5-11.1,11.1-11.1h130.4
			c6.1,0,11.1,5,11.1,11.1C281.9,743.2,276.9,748.2,270.8,748.2z M140.4,732.9c-2.3,0-4.2,1.9-4.2,4.2c0,2.3,1.9,4.2,4.2,4.2h130.4
			c2.3,0,4.2-1.9,4.2-4.2c0-2.3-1.9-4.2-4.2-4.2H140.4z"/>
	</g>
	<g id="XMLID_88_">
		<path id="XMLID_344_" fill="#8B288B" d="M259.4,778.8H151.7c-6.1,0-11.1-5-11.1-11.1c0-6.1,5-11.1,11.1-11.1h107.7
			c6.1,0,11.1,5,11.1,11.1C270.5,773.8,265.5,778.8,259.4,778.8z M151.7,763.5c-2.3,0-4.2,1.9-4.2,4.2c0,2.3,1.9,4.2,4.2,4.2h107.7
			c2.3,0,4.2-1.9,4.2-4.2c0-2.3-1.9-4.2-4.2-4.2H151.7z"/>
	</g>
</g>
<g id="XMLID_8_">
	<g id="XMLID_87_">
		<polygon id="XMLID_436_" fill="#E6E7E8" points="1052.6,195.7 1070.8,177.5 1130.2,208 1083,255.2 		"/>
	</g>
	<g id="XMLID_86_">
		<polygon id="XMLID_435_" fill="#D1D3D4" points="1052.6,195.7 1059.2,189.2 1089.6,248.6 1083,255.2 		"/>
	</g>
	<g id="XMLID_85_">
		<polygon id="XMLID_434_" fill="#FFFFFF" points="1070.8,177.5 1064.2,184.1 1123.6,214.6 1130.2,208 		"/>
	</g>
	<g id="XMLID_84_">
		<polygon id="XMLID_433_" fill="#8AD2D6" points="1097.4,277.6 1152.7,222.4 1310.4,342.4 1217.4,435.4 		"/>
	</g>
	<g id="XMLID_83_">
		<polygon id="XMLID_432_" fill="#63B2B2" points="1097.4,277.6 1103.7,271.3 1223.7,429.1 1217.4,435.4 		"/>
	</g>
	<g id="XMLID_82_">
		<path id="XMLID_431_" fill="#FEED70" d="M1077.5,279.1c-5.1-5.1-5.1-13.3,0-18.4l58.2-58.2c5.1-5.1,13.3-5.1,18.4,0l0,0
			c5.1,5.1,5.1,13.3,0,18.4l-58.2,58.2C1090.9,284.2,1082.6,284.2,1077.5,279.1L1077.5,279.1z"/>
	</g>
	<g id="XMLID_81_">
		<path id="XMLID_430_" fill="#FBB040" d="M1077.5,260.7l7.1-7.1c-5.1,5.1-5.1,13.3,0,18.4c5.1,5.1,13.3,5.1,18.4,0l-7.1,7.1
			c-5.1,5.1-13.3,5.1-18.4,0C1072.4,274,1072.4,265.8,1077.5,260.7z"/>
	</g>
	<g id="XMLID_80_">
		<path id="XMLID_429_" fill="#FFF8D3" d="M1135.7,202.5l-7.1,7.1c5.1-5.1,13.3-5.1,18.4,0c5.1,5.1,5.1,13.3,0,18.4l7.1-7.1
			c5.1-5.1,5.1-13.3,0-18.4C1149.1,197.4,1140.8,197.4,1135.7,202.5z"/>
	</g>
	<g id="XMLID_79_">
		<path id="XMLID_341_" fill="#8B288B" d="M1086.7,286.3c-4.2,0-8.4-1.6-11.6-4.8v0c-6.4-6.4-6.4-16.9,0-23.3l58.2-58.2
			c6.4-6.4,16.9-6.4,23.3,0c6.4,6.4,6.4,16.9,0,23.3l-58.2,58.2C1095.2,284.7,1091,286.3,1086.7,286.3z M1144.9,202.1
			c-2.5,0-4.9,0.9-6.8,2.8l-58.2,58.2c-3.7,3.7-3.7,9.8,0,13.6c0,0,0,0,0,0c3.7,3.7,9.8,3.7,13.6,0l58.2-58.2
			c3.7-3.7,3.7-9.8,0-13.6C1149.9,203,1147.4,202.1,1144.9,202.1z"/>
	</g>
	<g id="XMLID_78_">
		<path id="XMLID_338_" fill="#8B288B" d="M1083,258.6c-0.2,0-0.4,0-0.5,0c-1.1-0.2-2-0.9-2.5-1.8l-30.4-59.4
			c-0.7-1.3-0.4-2.9,0.6-4l18.2-18.2c1.1-1.1,2.7-1.3,4-0.6l59.4,30.4c1,0.5,1.7,1.4,1.8,2.5c0.2,1.1-0.2,2.2-1,3l-47.2,47.2
			C1084.8,258.2,1083.9,258.6,1083,258.6z M1056.8,196.4l27.2,53l40.5-40.5l-53-27.2L1056.8,196.4z"/>
	</g>
	<g id="XMLID_77_">
		<polygon id="XMLID_428_" fill="#FEED70" points="1310.4,342.4 1217.4,435.4 1197,408.6 1283.6,322 		"/>
	</g>
	<g id="XMLID_76_">
		<polygon id="XMLID_427_" fill="#FBB040" points="1197,408.6 1203.3,402.3 1223.7,429.1 1217.4,435.4 		"/>
	</g>
	<g id="XMLID_75_">
		<polygon id="XMLID_426_" fill="#D1EDF3" points="1152.7,222.4 1146.4,228.7 1304.2,348.7 1310.4,342.4 		"/>
	</g>
	<g id="XMLID_74_">
		<polygon id="XMLID_425_" fill="#FFFCED" points="1283.6,322 1277.3,328.3 1304.2,348.7 1310.4,342.4 		"/>
	</g>
	<g id="XMLID_73_">
		<path id="XMLID_335_" fill="#8B288B" d="M1217.4,438.8c-0.1,0-0.2,0-0.2,0c-1-0.1-1.9-0.6-2.5-1.3l-20.4-26.8
			c-1-1.4-0.9-3.3,0.3-4.5l86.6-86.6c1.2-1.2,3.1-1.3,4.5-0.3l26.8,20.4c0.8,0.6,1.3,1.5,1.3,2.5c0.1,1-0.3,2-1,2.7l-93,93
			C1219.2,438.5,1218.3,438.8,1217.4,438.8z M1201.6,408.9l16.2,21.3l87.5-87.5l-21.3-16.2L1201.6,408.9z"/>
	</g>
	<g id="XMLID_72_">
		
			<rect id="XMLID_424_" x="1145.7" y="281.7" transform="matrix(-0.7071 0.7071 -0.7071 -0.7071 2210.8789 -321.7371)" fill="#FEED70" width="52.7" height="30.7"/>
	</g>
	<g id="XMLID_71_">
		<path id="XMLID_332_" fill="#8B288B" d="M1164.3,330L1164.3,330c-0.9,0-1.8-0.4-2.4-1l-21.7-21.7c-1.3-1.3-1.3-3.5,0-4.9
			l37.3-37.3c1.3-1.3,3.6-1.3,4.9,0l21.7,21.7c1.3,1.3,1.3,3.5,0,4.9l-37.3,37.3C1166.1,329.6,1165.2,330,1164.3,330z M1147.4,304.8
			l16.8,16.8l32.4-32.4l-16.8-16.8L1147.4,304.8z"/>
	</g>
	<g id="XMLID_70_">
		<polygon id="XMLID_423_" fill="#8AD2D6" points="1111.9,198.6 1073.6,236.8 1062,214.1 1089.1,186.9 		"/>
	</g>
	<g id="XMLID_69_">
		<polygon id="XMLID_422_" fill="#63B2B2" points="1068.6,207.5 1080.2,230.2 1073.6,236.8 1066.1,222.1 1062,214.1 		"/>
	</g>
	<g id="XMLID_68_">
		<polygon id="XMLID_421_" fill="#D1EDF3" points="1082.6,193.5 1105.3,205.2 1111.9,198.6 1097.1,191 1089.1,186.9 		"/>
	</g>
	<g id="XMLID_67_">
		<path id="XMLID_329_" fill="#8B288B" d="M1073.6,240.3c-0.2,0-0.4,0-0.5,0c-1.1-0.2-2-0.9-2.5-1.8l-11.6-22.7
			c-0.7-1.3-0.4-2.9,0.6-4l27.2-27.2c1.1-1.1,2.7-1.3,4-0.6l22.7,11.6c1,0.5,1.7,1.4,1.8,2.5c0.2,1.1-0.2,2.2-1,3l-38.2,38.2
			C1075.4,239.9,1074.5,240.3,1073.6,240.3z M1066.2,214.7l8.4,16.3l31.6-31.6l-16.3-8.4L1066.2,214.7z"/>
	</g>
	<g id="XMLID_66_">
		<path id="XMLID_326_" fill="#8B288B" d="M1217.4,438.8c-0.1,0-0.2,0-0.2,0c-1-0.1-1.9-0.6-2.5-1.3l-120-157.7
			c-1-1.4-0.9-3.3,0.3-4.5l55.3-55.3c1.2-1.2,3.1-1.3,4.5-0.3l157.8,120c0.8,0.6,1.3,1.5,1.3,2.5c0.1,1-0.3,2-1,2.7l-93,93
			C1219.2,438.5,1218.3,438.8,1217.4,438.8z M1102,277.9l115.8,152.2l87.5-87.5L1153,226.9L1102,277.9z"/>
	</g>
</g>
<g id="XMLID_9_">
	<g id="XMLID_65_">
		
			<rect id="XMLID_420_" x="1133.1" y="596.9" transform="matrix(-0.7071 0.7071 -0.7071 -0.7071 2491.4822 300.8723)" fill="#FFFFFF" width="100.7" height="139.1"/>
	</g>
	<g id="XMLID_64_">
		<path id="XMLID_419_" fill="#8AD2D6" d="M1221.9,633.6L1221.9,633.6l46.3,46.3l-71.2,71.2l-86.7-86.7
			C1184.6,657.6,1221.9,633.6,1221.9,633.6z"/>
	</g>
	<g id="XMLID_63_">
		<path id="XMLID_418_" fill="#D1EDF3" d="M1221.9,633.6l46.3,46.3l-6.9,6.9l-48.4-48.4C1218.9,635.6,1221.9,633.6,1221.9,633.6z"/>
	</g>
	<g id="XMLID_62_">
		<path id="XMLID_417_" fill="#63B2B2" d="M1125.8,662.7l79.8,79.8l-8.7,8.6l-86.7-86.7C1115.7,664,1120.8,663.4,1125.8,662.7z"/>
	</g>
	<g id="XMLID_61_">
		
			<rect id="XMLID_416_" x="1084.2" y="574.3" transform="matrix(0.7071 -0.7071 0.7071 0.7071 -92.728 955.074)" fill="#7C89C4" width="44.6" height="30.4"/>
	</g>
	<g id="XMLID_60_">
		
			<rect id="XMLID_415_" x="1089.3" y="586.7" transform="matrix(0.7071 -0.7071 0.7071 0.7071 -105.1929 949.8943)" fill="#6071B6" width="9.4" height="30.4"/>
	</g>
	<g id="XMLID_59_">
		
			<rect id="XMLID_414_" x="1114.2" y="561.8" transform="matrix(0.707 -0.7072 0.7072 0.707 -80.2334 960.3423)" fill="#BFCBE8" width="9.4" height="30.4"/>
	</g>
	<g id="XMLID_58_">
		<path id="XMLID_323_" fill="#8B288B" d="M1101.5,619.4c-0.9,0-1.8-0.4-2.4-1l-21.5-21.5c-1.3-1.3-1.3-3.5,0-4.9l31.5-31.5
			c1.3-1.3,3.5-1.3,4.9,0l21.5,21.5c0.6,0.6,1,1.5,1,2.4c0,0.9-0.4,1.8-1,2.4l-31.5,31.5C1103.2,619.1,1102.4,619.4,1101.5,619.4z
			 M1084.8,594.5l16.6,16.6l26.7-26.7l-16.6-16.6L1084.8,594.5z"/>
	</g>
	<g id="XMLID_57_">
		<path id="XMLID_320_" fill="#8B288B" d="M1197,754.6c-0.9,0-1.8-0.3-2.4-1l-98.3-98.3c-0.6-0.6-1-1.5-1-2.4c0-0.9,0.4-1.8,1-2.4
			l71.2-71.2c1.3-1.3,3.5-1.3,4.9,0l98.3,98.3c0.6,0.6,1,1.5,1,2.4c0,0.9-0.4,1.8-1,2.4l-71.2,71.2
			C1198.7,754.3,1197.9,754.6,1197,754.6z M1103.5,652.9l93.5,93.5l66.4-66.4l-93.5-93.5L1103.5,652.9z"/>
	</g>
	<g id="XMLID_56_">
		<polygon id="XMLID_413_" fill="#FEED70" points="1268.2,680 1273.8,756.8 1197,751.2 		"/>
	</g>
	<g id="XMLID_55_">
		<polygon id="XMLID_412_" fill="#FFFCED" points="1260.1,688.1 1265,756 1274,756.6 1268.4,679.8 		"/>
	</g>
	<g id="XMLID_54_">
		<polygon id="XMLID_411_" fill="#FBB040" points="1205.3,742.9 1273.2,747.8 1273.8,756.8 1197,751.2 		"/>
	</g>
	<g id="XMLID_53_">
		<path id="XMLID_317_" fill="#8B288B" d="M1273.8,760.2c-0.1,0-0.2,0-0.3,0l-76.8-5.6c-1.3-0.1-2.5-1-3-2.2
			c-0.5-1.3-0.2-2.7,0.8-3.6l71.2-71.2c1-1,2.4-1.3,3.6-0.8c1.3,0.5,2.1,1.6,2.2,3l5.6,76.8c0.1,1-0.3,2-1,2.7
			C1275.6,759.9,1274.7,760.2,1273.8,760.2z M1204.7,748.3l65.4,4.8l-4.8-65.4L1204.7,748.3z"/>
	</g>
	<g id="XMLID_52_">
		<path id="XMLID_410_" fill="#FEED70" d="M1055.5,604.7c3.9,3.9,10.3,3.9,14.2,0l51.9-51.9c3.9-3.9,3.9-10.3,0-14.2l0,0
			c-3.9-3.9-10.3-3.9-14.2,0l-51.9,51.9C1051.6,594.4,1051.6,600.7,1055.5,604.7L1055.5,604.7z"/>
	</g>
	<g id="XMLID_51_">
		<path id="XMLID_409_" fill="#FBB040" d="M1055.5,590.4l51.9-51.9c0,0,0,0,0,0l-44.6,44.6c-3.9,3.9-3.9,10.3,0,14.2
			c3.9,3.9,10.3,3.9,14.2,0l-7.3,7.3c-3.9,3.9-10.3,3.9-14.2,0C1051.6,600.7,1051.6,594.4,1055.5,590.4z"/>
	</g>
	<g id="XMLID_50_">
		<path id="XMLID_408_" fill="#FFFCED" d="M1107.5,538.4l-7.3,7.3c3.9-3.9,10.3-3.9,14.2,0c3.9,3.9,3.9,10.3,0,14.2l7.3-7.3
			c3.9-3.9,3.9-10.3,0-14.2C1117.8,534.5,1111.5,534.5,1107.5,538.4z"/>
	</g>
	<g id="XMLID_49_">
		<path id="XMLID_314_" fill="#8B288B" d="M1062.7,611c-3.5,0-6.9-1.3-9.6-4c-5.3-5.3-5.3-13.8,0-19.1l51.9-51.9
			c5.3-5.3,13.8-5.3,19.1,0c5.3,5.3,5.3,13.8,0,19.1l-51.9,51.9C1069.6,609.7,1066.1,611,1062.7,611z M1114.6,539
			c-1.7,0-3.4,0.6-4.7,1.9l-51.9,51.9c-2.6,2.6-2.6,6.8,0,9.4c2.6,2.6,6.8,2.6,9.4,0l51.9-51.9c2.6-2.6,2.6-6.8,0-9.4
			C1118,539.7,1116.3,539,1114.6,539z"/>
	</g>
	<g id="XMLID_48_">
		<path id="XMLID_407_" fill="#FEED70" d="M1081.5,653c4.7,4.7,12.3,4.7,17,0l71.5-71.5c4.7-4.7,4.7-12.3,0-17l0,0
			c-4.7-4.7-12.3-4.7-17,0l-71.5,71.5C1076.8,640.7,1076.8,648.3,1081.5,653L1081.5,653z"/>
	</g>
	<g id="XMLID_47_">
		<path id="XMLID_406_" fill="#FFFCED" d="M1153,564.4l-8.5,8.5c4.7-4.7,12.3-4.7,17,0c4.7,4.7,4.7,12.3,0,17l8.5-8.5
			c4.7-4.7,4.7-12.3,0-17C1165.4,559.7,1157.7,559.7,1153,564.4z"/>
	</g>
	<g id="XMLID_46_">
		<path id="XMLID_405_" fill="#FBB040" d="M1081.6,635.8l8.5-8.5c-4.7,4.7-4.7,12.3,0,17c4.7,4.7,12.3,4.7,17,0l-8.5,8.5
			c-4.7,4.7-12.3,4.7-17,0C1076.9,648.2,1076.9,640.5,1081.6,635.8z"/>
	</g>
	<g id="XMLID_45_">
		<path id="XMLID_311_" fill="#8B288B" d="M1090,660c-4,0-7.9-1.5-11-4.5c-2.9-2.9-4.5-6.8-4.5-11c0-4.1,1.6-8,4.5-11l71.5-71.5
			c2.9-2.9,6.8-4.5,11-4.5s8,1.6,11,4.5c6,6,6,15.9,0,21.9l-71.5,71.5C1097.9,658.5,1094,660,1090,660z M1161.5,564.4
			c-2.3,0-4.5,0.9-6.1,2.5l-71.5,71.5c-1.6,1.6-2.5,3.8-2.5,6.1c0,2.3,0.9,4.5,2.5,6.1c3.4,3.4,8.8,3.4,12.2,0l71.5-71.5
			c3.4-3.4,3.4-8.8,0-12.2C1166,565.3,1163.8,564.4,1161.5,564.4z"/>
	</g>
	<g id="XMLID_44_">
		<path id="XMLID_310_" fill="#8B288B" d="M1310.4,796.9c-0.9,0-1.8-0.3-2.4-1l-36.6-36.6c-1.3-1.3-1.3-3.5,0-4.9
			c1.3-1.3,3.5-1.3,4.9,0l36.6,36.6c1.3,1.3,1.3,3.5,0,4.9C1312.2,796.5,1311.3,796.9,1310.4,796.9z"/>
	</g>
	<g id="XMLID_43_">
		<path id="XMLID_309_" fill="#8B288B" d="M1114.9,672.8c-0.9,0-1.8-0.3-2.4-1c-1.3-1.3-1.3-3.5,0-4.9l35.7-35.7
			c1.3-1.3,3.5-1.3,4.9,0s1.3,3.5,0,4.9l-35.7,35.7C1116.7,672.5,1115.8,672.8,1114.9,672.8z"/>
	</g>
	<g id="XMLID_42_">
		<path id="XMLID_303_" fill="#8B288B" d="M1131.3,689.2c-0.9,0-1.8-0.3-2.4-1c-1.3-1.3-1.3-3.5,0-4.9l20-20c1.3-1.3,3.5-1.3,4.9,0
			c1.3,1.3,1.3,3.5,0,4.9l-20,20C1133.1,688.9,1132.2,689.2,1131.3,689.2z"/>
	</g>
	<g id="XMLID_41_">
		<path id="XMLID_302_" fill="#8B288B" d="M1147.7,705.6c-0.9,0-1.8-0.3-2.4-1c-1.3-1.3-1.3-3.5,0-4.9L1181,664
			c1.3-1.3,3.5-1.3,4.9,0c1.3,1.3,1.3,3.5,0,4.9l-35.7,35.7C1149.4,705.3,1148.6,705.6,1147.7,705.6z"/>
	</g>
	<g id="XMLID_40_">
		<path id="XMLID_33_" fill="#8B288B" d="M1164.1,722c-0.9,0-1.8-0.3-2.4-1c-1.3-1.3-1.3-3.5,0-4.9l20-20c1.3-1.3,3.5-1.3,4.9,0
			c1.3,1.3,1.3,3.5,0,4.9l-20,20C1165.8,721.7,1165,722,1164.1,722z"/>
	</g>
	<g id="XMLID_39_">
		<path id="XMLID_32_" fill="#8B288B" d="M1180.5,738.4c-0.9,0-1.8-0.3-2.4-1c-1.3-1.3-1.3-3.5,0-4.9l35.7-35.7
			c1.3-1.3,3.5-1.3,4.9,0c1.3,1.3,1.3,3.5,0,4.9l-35.7,35.7C1182.2,738,1181.3,738.4,1180.5,738.4z"/>
	</g>
</g>
<g id="XMLID_10_">
	<g id="XMLID_38_">
		<path id="XMLID_404_" fill="#FFFFFF" d="M443.8,588c-23.6,23.6-23.6,61.9,0,85.5c23.6,23.6,61.9,23.6,85.5,0
			c23.6-23.6,23.6-61.9,0-85.5C505.7,564.4,467.4,564.4,443.8,588z"/>
	</g>
	<g id="XMLID_11_">
		<path fill="#FEED70" d="M425.7,569.8c-33.6,33.7-33.6,88.2,0,121.8c33.6,33.6,88.2,33.6,121.8,0c33.6-33.6,33.6-88.2,0-121.8
			C513.8,536.2,459.3,536.2,425.7,569.8z M529.3,673.5c-23.6,23.6-61.9,23.6-85.5,0c-23.6-23.6-23.6-61.9,0-85.5
			c23.6-23.6,61.9-23.6,85.5,0C552.9,611.6,552.9,649.9,529.3,673.5z"/>
	</g>
	<g id="XMLID_12_">
		<g id="XMLID_35_">
			<path id="XMLID_403_" fill="#FBB040" d="M425.7,569.8c-1,1-2,2.1-3,3.2c33.8-30.6,86-29.6,118.6,3c32.6,32.6,33.6,84.8,3,118.7
				c1.1-1,2.2-2,3.2-3c33.6-33.6,33.6-88.2,0-121.8C513.8,536.2,459.3,536.2,425.7,569.8z"/>
		</g>
	</g>
	<g id="XMLID_13_">
		<g id="XMLID_34_">
			<path id="XMLID_402_" fill="#FFFCED" d="M425.7,569.8c1-1,2.1-2,3.2-3c-30.6,33.8-29.6,86,3,118.6c32.6,32.6,84.8,33.6,118.7,3
				c-1,1.1-2,2.2-3,3.2c-33.6,33.6-88.2,33.6-121.8,0C392,658,392,603.5,425.7,569.8z"/>
		</g>
	</g>
	<g id="XMLID_14_">
		<path id="XMLID_304_" fill="#8B288B" d="M486.6,720.3c-22.9,0-45.9-8.7-63.3-26.2c-34.9-34.9-34.9-91.7,0-126.7
			c34.9-34.9,91.7-34.9,126.6,0c0,0,0,0,0,0c34.9,34.9,34.9,91.8,0,126.7C532.4,711.5,509.5,720.3,486.6,720.3z M486.6,548.1
			c-21.2,0-42.3,8.1-58.5,24.2c-32.2,32.2-32.2,84.7,0,116.9c32.2,32.2,84.7,32.2,116.9,0c32.2-32.2,32.2-84.7,0-117
			C528.9,556.1,507.7,548.1,486.6,548.1z M486.6,694.6c-17.1,0-33.1-6.6-45.2-18.7c-12.1-12.1-18.7-28.1-18.7-45.2
			c0-17.1,6.6-33.1,18.7-45.2c24.9-24.9,65.4-24.9,90.3,0c24.9,24.9,24.9,65.4,0,90.3c0,0,0,0,0,0
			C519.7,688,503.6,694.6,486.6,694.6z M486.6,573.8c-14.6,0-29.2,5.6-40.3,16.7c-10.8,10.8-16.7,25.1-16.7,40.3
			c0,15.2,5.9,29.5,16.7,40.3c10.8,10.8,25.1,16.7,40.3,16.7c15.2,0,29.5-5.9,40.3-16.7c22.2-22.2,22.2-58.4,0-80.6
			C515.7,579.3,501.2,573.8,486.6,573.8z"/>
	</g>
	<g id="XMLID_31_">
		<polygon id="XMLID_401_" fill="#EF445A" points="584.7,692 547.8,728.8 621.5,802.5 658.3,765.7 		"/>
	</g>
	<g id="XMLID_30_">
		<polygon id="XMLID_400_" fill="#C62642" points="584.7,692 575.5,701.2 649.1,774.9 658.3,765.7 		"/>
	</g>
	<g id="XMLID_29_">
		<polygon id="XMLID_399_" fill="#F593A6" points="557.1,719.6 547.8,728.8 621.5,802.5 630.7,793.3 		"/>
	</g>
	<g id="XMLID_28_">
		<path id="XMLID_299_" fill="#8B288B" d="M621.5,805.9c-0.9,0-1.8-0.3-2.4-1l-73.6-73.6c-0.6-0.6-1-1.5-1-2.4c0-0.9,0.4-1.8,1-2.4
			l36.8-36.8c1.3-1.3,3.5-1.3,4.9,0l73.6,73.6c0.6,0.6,1,1.5,1,2.4c0,0.9-0.4,1.8-1,2.4l-36.8,36.8
			C623.2,805.6,622.4,805.9,621.5,805.9z M552.7,728.8l68.8,68.8l31.9-31.9l-68.8-68.8L552.7,728.8z"/>
	</g>
	<g id="XMLID_27_">
		<path id="XMLID_398_" fill="#7C89C4" d="M547.5,691.6c-3.1,3.1-6.4,6-9.9,8.5l19.5,19.5l18.4-18.4L556,681.7
			C553.4,685.2,550.6,688.5,547.5,691.6z"/>
	</g>
	<g id="XMLID_15_">
		<g id="XMLID_26_">
			<path id="XMLID_397_" fill="#6071B6" d="M551.9,686.9l18.9,19l4.6-4.6L556,681.7C554.7,683.5,553.3,685.2,551.9,686.9z"/>
		</g>
	</g>
	<g id="XMLID_16_">
		<g id="XMLID_25_">
			<path id="XMLID_396_" fill="#BFCBE8" d="M542.7,696.1l19,18.9l-4.6,4.6l-19.5-19.5C539.3,698.9,541,697.5,542.7,696.1z"/>
		</g>
	</g>
	<g id="XMLID_24_">
		<path id="XMLID_296_" fill="#8B288B" d="M557,723.1c-0.9,0-1.8-0.3-2.4-1l-19.5-19.5c-0.7-0.7-1.1-1.7-1-2.7
			c0.1-1,0.6-1.9,1.4-2.5c3.3-2.5,6.5-5.2,9.5-8.2c2.9-2.9,5.7-6.1,8.2-9.5c0.6-0.8,1.5-1.3,2.5-1.4c1-0.1,2,0.3,2.7,1l19.5,19.5
			c1.3,1.3,1.3,3.5,0,4.9L559.5,722C558.8,722.7,557.9,723.1,557,723.1z M542.8,700.5l14.3,14.3l13.5-13.5l-14.3-14.3
			c-2,2.5-4.2,4.9-6.4,7.1c0,0,0,0,0,0C547.6,696.3,545.2,698.5,542.8,700.5z"/>
	</g>
	<g id="XMLID_17_">
		<path id="XMLID_18_" fill="#8AD2D6" d="M521,609.8c0-21.5-24.6-18.3-27.9-14.8c-2.9,3-4.6,4.2-6.5,4.2c-1.9,0-3.6-1.2-6.5-4.2
			c-3.4-3.5-27.9-6.7-27.9,14.8c0,21.5,12.1,21.9,12.1,33.1c0,11.2-0.3,26.2,8.6,26.2c8.9,0,3.7-30,13.8-30c10.1,0,4.9,30,13.8,30
			c8.9,0,8.6-15,8.6-26.2C508.9,631.7,521,631.3,521,609.8z M472.4,605.4c-4.6,0-6.1,0.8-6.1,10.2c0,1.7-1.4,3.1-3.1,3.1
			c-1.7,0-3.1-1.4-3.1-3.1c0-6.6,0-16.5,12.3-16.5c1.7,0,3.1,1.4,3.1,3.1C475.5,604,474.1,605.4,472.4,605.4z"/>
	</g>
</g>
<g id="XMLID_19_">
	<g id="XMLID_21_">
		<path id="XMLID_395_" fill="#F9E642" d="M781.5,687.1c0,0,18.5-103.6,13.1-111.4c-5.5-7.9-22.4-5.2-37.8-4.7
			c-13.8,0.4-20.1-26.1,7.7-25.5c27.8,0.6,46.1-6,63,10.9c16.9,16.9,9.6,112.3,9.6,112.3l53.4,117.8l-16.1,16.1L781.5,687.1z"/>
	</g>
	<g id="XMLID_20_">
		<path id="XMLID_394_" fill="#FFFCED" d="M776.8,567.9c0.1,0.7,0.1,1.4,0.1,2.2c8,0,14.7,1.1,17.8,5.5
			c5.5,7.9-13.1,111.4-13.1,111.4l92.9,115.4l5.6-5.6l-90.4-112.3c0,0,18.5-103.6,13.1-111.4C798.6,567.3,788.2,567.4,776.8,567.9z"
			/>
	</g>
	<g id="XMLID_129_">
		<path id="XMLID_393_" fill="#FBB040" d="M764.5,545.4c-12.4-0.3-18,4.9-19.2,10.7c2.6-0.8,5.8-1.3,9.7-1.2
			c27.8,0.6,46.1-6,63,10.9c16.9,16.9,9.6,112.3,9.6,112.3l53.4,117.8l9.5-9.5l-53.4-117.8c0,0,7.3-95.4-9.6-112.3
			C810.6,539.4,792.3,546,764.5,545.4z"/>
	</g>
	<g id="XMLID_130_">
		<path id="XMLID_293_" fill="#8B288B" d="M874.5,805.9c-0.1,0-0.1,0-0.2,0c-1-0.1-1.9-0.5-2.5-1.3l-92.9-115.4
			c-0.6-0.8-0.9-1.8-0.7-2.8c8.7-48.9,16.2-103.1,13.5-109c-3.3-4.8-15-4.1-26.4-3.5c-2.8,0.2-5.6,0.3-8.4,0.4
			c-5.2,0.2-10.1-2.6-13-7.4c-3-5.1-3.2-11.2-0.4-16c2-3.5,7.4-9.2,21-9c6.7,0.1,12.7-0.1,18.6-0.4c18.4-0.9,33-1.5,46.8,12.3
			c17.1,17.1,11.7,100.7,10.7,114.1l53.1,117c0.6,1.3,0.3,2.8-0.7,3.9l-16.1,16.1C876.2,805.5,875.4,805.9,874.5,805.9z
			 M785.2,686.1l89.5,111.2l11.7-11.7L834,670c-0.2-0.5-0.3-1.1-0.3-1.7c2-26.1,4.3-96.6-8.6-109.6c-11.7-11.7-24.2-11.1-41.6-10.3
			c-5.7,0.3-12.1,0.6-19,0.4c-7.4-0.2-12.7,1.8-14.9,5.5c-1.5,2.7-1.4,6.1,0.3,9.1c1.6,2.6,4.1,4.1,6.8,4.1c2.7-0.1,5.5-0.2,8.2-0.4
			c13.8-0.8,26.9-1.5,32.5,6.6c1.4,2,4.2,6.1-3.9,61.1C790.1,657.7,786.2,680.2,785.2,686.1z"/>
	</g>
	<g id="XMLID_131_">
		<path id="XMLID_392_" fill="#FEF6B4" d="M792.1,620.5c-21.9,2.9-41.6,4.8-44.8,2.5c-7.9-5.5-5.2-22.4-4.7-37.8
			c0.4-13.8-26.1-20.1-25.5,7.7c0.6,27.8-6,46.1,10.9,63c7.9,7.9,32.7,10.5,57.1,11C787.1,654,789.9,636.6,792.1,620.5z"/>
	</g>
	<g id="XMLID_132_">
		<path id="XMLID_391_" fill="#FEF6B4" d="M838.5,613.4c0.5,22.6-0.7,44.7-1.2,52.3c1.8-0.1,2.8-0.2,2.8-0.2L958,719l16.1-16.1
			l-115.4-92.9C858.7,609.9,850.5,611.4,838.5,613.4z"/>
	</g>
	<g id="XMLID_133_">
		<path id="XMLID_390_" fill="#E2D47D" d="M838.5,613.4c0.5,22.6-0.7,44.7-1.2,52.3c1.8-0.1,2.8-0.2,2.8-0.2l5.6,2.5
			c0.5-8.2,1.9-30.9,1.8-56.2C844.9,612.3,841.9,612.8,838.5,613.4z"/>
	</g>
	<g id="XMLID_134_">
		<path id="XMLID_389_" fill="#E2D47D" d="M785,667c2.2-13,4.9-30.3,7.1-46.5c-2.4,0.3-4.8,0.6-7.2,0.9c-2.3,16.1-4.9,32.2-7,45.3
			C780.2,666.8,782.6,666.9,785,667z"/>
	</g>
	<g id="XMLID_135_">
		<g id="XMLID_136_">
			<path id="XMLID_290_" fill="#8B288B" d="M785,670.4C785,670.4,784.9,670.4,785,670.4c-32.7-0.8-52.2-4.7-59.5-12.1
				c-13.8-13.8-13.2-28.4-12.3-46.8c0.3-5.8,0.5-11.9,0.4-18.6c-0.3-13.5,5.5-18.9,9-21c4.8-2.8,11-2.7,16,0.4
				c4.8,2.9,7.6,7.7,7.4,13c-0.1,2.8-0.2,5.6-0.4,8.4c-0.6,11.3-1.3,23.1,3.6,26.5c0.9,0.4,7.2,1.6,42.4-3.1c1.1-0.1,2.1,0.2,2.9,1
				c0.8,0.8,1.1,1.8,1,2.9c-2.2,16.6-5.1,34.5-7.1,46.6C788.1,669.2,786.7,670.4,785,670.4z M730.1,576.9c-1.5,0-2.9,0.4-4.1,1.1
				c-3.7,2.2-5.7,7.5-5.5,14.9c0.1,6.9-0.2,13.3-0.4,19c-0.8,17.4-1.4,29.9,10.3,41.6c3.3,3.3,14.4,8.8,51.8,10
				c1.8-10.7,4-25.1,6-39c-37.7,4.9-41,2.6-42.8,1.4c-8.1-5.6-7.3-18.7-6.6-32.5c0.2-2.7,0.3-5.5,0.4-8.2c0.1-2.7-1.4-5.3-4.1-6.8
				C733.5,577.4,731.7,576.9,730.1,576.9z"/>
		</g>
		<g id="XMLID_137_">
			<path id="XMLID_287_" fill="#8B288B" d="M958,722.4c-0.5,0-1-0.1-1.4-0.3l-117-53.1c-0.5,0-1.1,0.1-2,0.1c-1,0.1-2-0.3-2.7-1
				c-0.7-0.7-1.1-1.7-1-2.7c0.5-8.3,1.7-29.9,1.2-52c0-1.7,1.2-3.2,2.9-3.5c11.8-2,20-3.4,20.1-3.4c1-0.2,2,0.1,2.8,0.7l115.4,92.9
				c0.8,0.6,1.2,1.5,1.3,2.5c0.1,1-0.3,1.9-1,2.6l-16.1,16.1C959.7,722.1,958.9,722.4,958,722.4z M841,662.2
				c0.2,0.1,0.4,0.1,0.6,0.2l115.7,52.5l11.7-11.7l-111.2-89.5c-2.6,0.5-8.3,1.4-15.7,2.7C842.3,634.8,841.5,652.6,841,662.2z"/>
		</g>
	</g>
	<g id="XMLID_138_">
		<path id="XMLID_388_" fill="#F7941E" d="M820,635.4c3.6,3.6,3.6,9.4,0,13c-3.6,3.6-9.4,3.6-13,0c-3.6-3.6-3.6-9.4,0-13
			C810.6,631.8,816.4,631.8,820,635.4z"/>
	</g>
	<g id="XMLID_139_">
		<path id="XMLID_284_" fill="#8B288B" d="M813.5,654.6c-3.2,0-6.5-1.2-8.9-3.7c-4.9-4.9-4.9-13,0-17.9c2.4-2.4,5.6-3.7,8.9-3.7
			c0,0,0,0,0,0c3.4,0,6.6,1.3,8.9,3.7l0,0c2.4,2.4,3.7,5.6,3.7,8.9s-1.3,6.6-3.7,8.9C820,653.3,816.8,654.6,813.5,654.6z
			 M813.5,636.2c-1.5,0-3,0.6-4.1,1.7c-2.2,2.3-2.3,5.9,0,8.2c2.3,2.3,5.9,2.3,8.2,0c1.1-1.1,1.7-2.5,1.7-4.1s-0.6-3-1.7-4.1
			c0,0,0,0,0,0C816.5,636.8,815.1,636.2,813.5,636.2L813.5,636.2z"/>
	</g>
</g>
<g id="XMLID_140_">
	<g id="XMLID_141_">
		<path id="XMLID_387_" fill="#8AD2D6" d="M889,267.5l-33.8-33.8c-26.3-26.3-69-26.3-95.3,0l-2,2c-26.3,26.3-26.3,69,0,95.3
			l33.8,33.8L889,267.5z"/>
	</g>
	<g id="XMLID_142_">
		<path id="XMLID_386_" fill="#EF445A" d="M898.6,277.2l33.8,33.8c26.3,26.3,26.3,69,0,95.3l-2,2c-26.3,26.3-69,26.3-95.3,0
			l-33.8-33.8L898.6,277.2z"/>
	</g>
	<g id="XMLID_143_">
		<path id="XMLID_281_" fill="#8B288B" d="M790.7,378.9c-0.9,0-1.8-0.4-2.4-1l-37.8-37.8c-30.7-30.7-30.7-80.8,0-111.5l2.2-2.2
			c14.9-14.9,34.7-23.1,55.8-23.1c21.1,0,40.9,8.2,55.8,23.1l37.8,37.8c1.3,1.3,1.3,3.5,0,4.9L793.1,377.9
			C792.5,378.5,791.6,378.9,790.7,378.9z M808.4,210.1c-19.2,0-37.3,7.5-50.9,21.1l-2.2,2.2c-28.1,28.1-28.1,73.7,0,101.8l35.4,35.4
			l104-104l-35.4-35.4C845.7,217.6,827.6,210.1,808.4,210.1z"/>
	</g>
	<g id="XMLID_144_">
		<path id="XMLID_278_" fill="#8B288B" d="M881.9,438.8c-21.1,0-40.9-8.2-55.8-23.1l-37.8-37.8c-1.3-1.3-1.3-3.5,0-4.9l108.9-108.9
			c1.3-1.3,3.5-1.3,4.9,0l37.8,37.8c14.9,14.9,23.1,34.7,23.1,55.8c0,21.1-8.2,40.9-23.1,55.8l-2.2,2.2
			C922.7,430.6,902.9,438.8,881.9,438.8z M795.5,375.5l35.4,35.4c13.6,13.6,31.7,21.1,50.9,21.1c19.2,0,37.3-7.5,50.9-21.1l2.2-2.2
			c13.6-13.6,21.1-31.7,21.1-50.9c0-19.2-7.5-37.3-21.1-50.9l-35.4-35.4L795.5,375.5z"/>
	</g>
	<g id="XMLID_145_">
		<path id="XMLID_385_" fill="#C62642" d="M902.7,405.3c15.8-14,31.9-28.7,48.6-35.5c-2.2,13.4-8.5,26.3-18.8,36.6l-2,2
			c-26.3,26.3-69,26.3-95.3,0C835.1,408.3,875.1,429.6,902.7,405.3z"/>
	</g>
	<g id="XMLID_146_">
		<g id="XMLID_147_">
			<path id="XMLID_384_" fill="#FFFFFF" d="M855.3,259.3c3-3,3-7.9,0-10.9c-25.8-25.8-67.9-25.8-93.7,0c-3,3-3,7.9,0,10.9
				c3,3,7.9,3,10.9,0c19.8-19.8,52-19.8,71.9,0C847.3,262.3,852.2,262.3,855.3,259.3z"/>
		</g>
	</g>
	<g id="XMLID_148_">
		<g id="XMLID_149_">
			<path id="XMLID_383_" fill="#FFFFFF" d="M918.1,404.3c25.8-25.8,25.8-67.9,0-93.7c-3-3-7.9-3-10.9,0c-3,3-3,7.9,0,10.9
				c19.8,19.8,19.8,52,0,71.9c-3,3-3,7.9,0,10.9C910.2,407.3,915.1,407.3,918.1,404.3z"/>
		</g>
	</g>
	<g id="XMLID_150_">
		<path id="XMLID_151_" fill="#63B2B2" d="M757.8,331c-0.6-0.6-1.1-1.2-1.6-1.7c2.4,1.4,26,14.4,47.2-2.9
			c22.4-18.3,64.2-64.9,85.6-58.8l-97.3,97.3L757.8,331z"/>
	</g>
</g>
</svg>
